name rise49.8558peak67.6521fall70.3087.mot
datacolumns 19
datarows 35
range 3.74000500000000 3.79665200000000
endheader
time	ground_force1_vx	ground_force1_vy	ground_force1_vz	ground_force1_px	ground_force1_py	ground_force1_pz	ground_force2_vx	ground_force2_vy	ground_force2_vz	ground_force2_px	ground_force2_py	ground_force2_pz	ground_torque1_x	ground_torque1_y	ground_torque1_z	ground_torque2_x	ground_torque2_y	ground_torque2_z	
3.74000500000000	-51.93246400000000	813.19567099999995	58.59084500000000	0.13095700000000	0.00000000000000	0.07615000000000	-5.40050400000000	34.91273400000000	4.30829100000000	0.32215500000000	0.00000000000000	-0.10045500000000	0.00000000000000	23.51875000000000	0.00000000000000	0.00000000000000	2.31552100000000	0.00000000000000	
3.74165500000000	-52.07922300000000	811.28380600000003	58.64695200000000	0.13013900000000	0.00000000000000	0.07615300000000	-6.11251300000000	41.72602300000000	4.99562800000000	0.32945900000000	0.00000000000000	-0.10065300000000	0.00000000000000	23.39698800000000	0.00000000000000	0.00000000000000	2.75029800000000	0.00000000000000	
3.74331600000000	-52.21214600000000	809.20645500000001	58.67535700000000	0.12934900000000	0.00000000000000	0.07615300000000	-6.74022900000000	48.68200900000000	5.65131300000000	0.33623700000000	0.00000000000000	-0.10082300000000	0.00000000000000	23.26868700000000	0.00000000000000	0.00000000000000	3.18412400000000	0.00000000000000	
3.74499200000000	-52.33192700000000	806.96342500000003	58.67526600000000	0.12858500000000	0.00000000000000	0.07614800000000	-7.26050600000000	55.66592200000000	6.25804300000000	0.34256100000000	0.00000000000000	-0.10097000000000	0.00000000000000	23.13402400000000	0.00000000000000	0.00000000000000	3.60670200000000	0.00000000000000	
3.74665600000000	-52.43929400000000	804.55478200000005	58.64594400000000	0.12784900000000	0.00000000000000	0.07613800000000	-7.65605500000000	62.58278900000000	6.80211200000000	0.34848400000000	0.00000000000000	-0.10110000000000	0.00000000000000	22.99318500000000	0.00000000000000	0.00000000000000	4.00926900000000	0.00000000000000	
3.74832400000000	-52.53500700000000	801.98084700000004	58.58671800000000	0.12714200000000	0.00000000000000	0.07612400000000	-7.91600800000000	69.36216700000000	7.27394000000000	0.35405200000000	0.00000000000000	-0.10121500000000	0.00000000000000	22.84636200000000	0.00000000000000	0.00000000000000	4.38502600000000	0.00000000000000	
3.74999600000000	-52.61985600000000	799.24218900000005	58.49698100000000	0.12646400000000	0.00000000000000	0.07610500000000	-8.03587600000000	75.96012500000001	7.66818300000000	0.35930100000000	0.00000000000000	-0.10131800000000	0.00000000000000	22.69375600000000	0.00000000000000	0.00000000000000	4.72934700000000	0.00000000000000	
3.75165100000000	-52.69465700000000	796.33961399999998	58.37619400000000	0.12581500000000	0.00000000000000	0.07608100000000	-8.01699700000000	82.35871200000000	7.98347900000000	0.36426200000000	0.00000000000000	-0.10141200000000	0.00000000000000	22.53557400000000	0.00000000000000	0.00000000000000	5.03976900000000	0.00000000000000	
3.75332300000000	-52.76024500000000	793.27416200000005	58.22389000000000	0.12519600000000	0.00000000000000	0.07605100000000	-7.86560600000000	88.56338700000001	8.22190800000000	0.36896000000000	0.00000000000000	-0.10149900000000	0.00000000000000	22.37202600000000	0.00000000000000	0.00000000000000	5.31581200000000	0.00000000000000	
3.75499400000000	-52.81747800000000	790.04709100000002	58.03967400000000	0.12460700000000	0.00000000000000	0.07601600000000	-7.59166100000000	94.59895400000001	8.38826900000000	0.37341400000000	0.00000000000000	-0.10158000000000	0.00000000000000	22.20332700000000	0.00000000000000	0.00000000000000	5.55865700000000	0.00000000000000	
3.75665500000000	-52.86722500000000	786.65987099999995	57.82322600000000	0.12404700000000	0.00000000000000	0.07597600000000	-7.20757500000000	100.50462500000000	8.48926100000000	0.37764300000000	0.00000000000000	-0.10165700000000	0.00000000000000	22.02969400000000	0.00000000000000	0.00000000000000	5.77074300000000	0.00000000000000	
3.75832200000000	-52.91036600000000	783.11416999999994	57.57430400000000	0.12351800000000	0.00000000000000	0.07593000000000	-6.72696700000000	106.32875100000000	8.53264300000000	0.38166200000000	0.00000000000000	-0.10173200000000	0.00000000000000	21.85134600000000	0.00000000000000	0.00000000000000	5.95532400000000	0.00000000000000	
3.75998600000000	-52.94778800000000	779.41184299999998	57.29274400000000	0.12301800000000	0.00000000000000	0.07587800000000	-6.16353200000000	112.12371500000000	8.52646900000000	0.38548200000000	0.00000000000000	-0.10180500000000	0.00000000000000	21.66850400000000	0.00000000000000	0.00000000000000	6.11603800000000	0.00000000000000	
3.76165200000000	-52.98037700000000	775.55491700000005	56.97846100000000	0.12254700000000	0.00000000000000	0.07582100000000	-5.53010600000000	117.94137000000001	8.47841800000000	0.38911500000000	0.00000000000000	-0.10187700000000	0.00000000000000	21.48138600000000	0.00000000000000	0.00000000000000	6.25651600000000	0.00000000000000	
3.76332000000000	-53.00901800000000	771.54558199999997	56.63145200000000	0.12210600000000	0.00000000000000	0.07575700000000	-4.83795600000000	123.82927900000000	8.39527800000000	0.39257100000000	0.00000000000000	-0.10195000000000	0.00000000000000	21.29021300000000	0.00000000000000	0.00000000000000	6.38005500000000	0.00000000000000	
3.76499300000000	-53.03458300000000	767.38617399999998	56.25179200000000	0.12169200000000	0.00000000000000	0.07568800000000	-4.09631900000000	129.82791100000000	8.28258600000000	0.39585600000000	0.00000000000000	-0.10202300000000	0.00000000000000	21.09520200000000	0.00000000000000	0.00000000000000	6.48937500000000	0.00000000000000	
3.76665200000000	-53.05793500000000	763.07916200000000	55.83964100000000	0.12130700000000	0.00000000000000	0.07561200000000	-3.31217600000000	135.96883800000001	8.14442700000000	0.39897900000000	0.00000000000000	-0.10209800000000	0.00000000000000	20.89656700000000	0.00000000000000	0.00000000000000	6.58646300000000	0.00000000000000	
3.76831800000000	-53.07991500000000	758.62713299999996	55.39523700000000	0.12094800000000	0.00000000000000	0.07553100000000	-2.49023900000000	142.27388900000000	7.98338200000000	0.40194500000000	0.00000000000000	-0.10217400000000	0.00000000000000	20.69452000000000	0.00000000000000	0.00000000000000	6.67250100000000	0.00000000000000	
3.76999400000000	-53.10133900000000	754.03277900000000	54.91890000000000	0.12061500000000	0.00000000000000	0.07544300000000	-1.63311500000000	148.75514899999999	7.80059200000000	0.40475900000000	0.00000000000000	-0.10225300000000	0.00000000000000	20.48927000000000	0.00000000000000	0.00000000000000	6.74787500000000	0.00000000000000	
3.77164800000000	-53.12299500000000	749.29888200000005	54.41103000000000	0.12030800000000	0.00000000000000	0.07534900000000	-0.74159900000000	155.41565800000001	7.59592900000000	0.40742800000000	0.00000000000000	-0.10233400000000	0.00000000000000	20.28102200000000	0.00000000000000	0.00000000000000	6.81223600000000	0.00000000000000	
3.77331500000000	-53.14563600000000	744.42829800000004	53.87210600000000	0.12002400000000	0.00000000000000	0.07525000000000	0.18495100000000	162.25061199999999	7.36822800000000	0.40995400000000	0.00000000000000	-0.10241800000000	0.00000000000000	20.06997500000000	0.00000000000000	0.00000000000000	6.86461600000000	0.00000000000000	
3.77499700000000	-53.16997200000000	739.42394400000001	53.30268600000000	0.11976300000000	0.00000000000000	0.07514400000000	1.14819000000000	169.24889899999999	7.11555600000000	0.41234200000000	0.00000000000000	-0.10250600000000	0.00000000000000	19.85632300000000	0.00000000000000	0.00000000000000	6.90357400000000	0.00000000000000	
3.77665000000000	-53.19666900000000	734.28878099999997	52.70340100000000	0.11952400000000	0.00000000000000	0.07503200000000	2.15036700000000	176.39478600000001	6.83549200000000	0.41459500000000	0.00000000000000	-0.10259700000000	0.00000000000000	19.64025800000000	0.00000000000000	0.00000000000000	6.92735100000000	0.00000000000000	
3.77831600000000	-53.22634400000000	729.02580399999999	52.07496000000000	0.11930400000000	0.00000000000000	0.07491400000000	3.19393400000000	183.66960700000001	6.52539900000000	0.41671700000000	0.00000000000000	-0.10269100000000	0.00000000000000	19.42196300000000	0.00000000000000	0.00000000000000	6.93402700000000	0.00000000000000	
3.77999600000000	-53.25955400000000	723.63802199999998	51.41814100000000	0.11910400000000	0.00000000000000	0.07479100000000	4.28120500000000	191.05332200000001	6.18266000000000	0.41871100000000	0.00000000000000	-0.10278900000000	0.00000000000000	19.20161800000000	0.00000000000000	0.00000000000000	6.92166600000000	0.00000000000000	
3.78165400000000	-53.29679900000000	718.12844900000005	50.73379400000000	0.11892000000000	0.00000000000000	0.07466100000000	5.41408400000000	198.52587000000000	5.80487800000000	0.42057900000000	0.00000000000000	-0.10289100000000	0.00000000000000	18.97939800000000	0.00000000000000	0.00000000000000	6.88844100000000	0.00000000000000	
3.78332300000000	-53.33851300000000	712.50009000000000	50.02283200000000	0.11875100000000	0.00000000000000	0.07452600000000	6.59387500000000	206.06824000000000	5.39002700000000	0.42232400000000	0.00000000000000	-0.10299600000000	0.00000000000000	18.75547000000000	0.00000000000000	0.00000000000000	6.83273500000000	0.00000000000000	
3.78499900000000	-53.38505700000000	706.75592600000004	49.28623600000000	0.11859600000000	0.00000000000000	0.07438500000000	7.82115300000000	213.66325100000000	4.93655100000000	0.42394900000000	0.00000000000000	-0.10310500000000	0.00000000000000	18.52999800000000	0.00000000000000	0.00000000000000	6.75320500000000	0.00000000000000	
3.78665300000000	-53.43672400000000	700.89890300000002	48.52504500000000	0.11845300000000	0.00000000000000	0.07423900000000	9.09572300000000	221.29603700000001	4.44342000000000	0.42545600000000	0.00000000000000	-0.10321800000000	0.00000000000000	18.30314100000000	0.00000000000000	0.00000000000000	6.64883300000000	0.00000000000000	
3.78831600000000	-53.49372500000000	694.93192199999999	47.74035500000000	0.11831900000000	0.00000000000000	0.07408800000000	10.41662300000000	228.95425800000001	3.91014200000000	0.42684700000000	0.00000000000000	-0.10333500000000	0.00000000000000	18.07505100000000	0.00000000000000	0.00000000000000	6.51893500000000	0.00000000000000	
3.78999600000000	-53.55619400000000	688.85782900000004	46.93331600000000	0.11819400000000	0.00000000000000	0.07393100000000	11.78218300000000	236.62808000000001	3.33674000000000	0.42812500000000	0.00000000000000	-0.10345500000000	0.00000000000000	17.84587600000000	0.00000000000000	0.00000000000000	6.36316200000000	0.00000000000000	
3.79164900000000	-53.62417800000000	682.67940399999998	46.10512700000000	0.11807500000000	0.00000000000000	0.07376900000000	13.19011900000000	244.30996800000000	2.72370600000000	0.42929200000000	0.00000000000000	-0.10358000000000	0.00000000000000	17.61576100000000	0.00000000000000	0.00000000000000	6.18147400000000	0.00000000000000	
3.79332400000000	-53.69763900000000	676.39935300000002	45.25703100000000	0.11795900000000	0.00000000000000	0.07360300000000	14.63764600000000	251.99436100000000	2.07193200000000	0.43034900000000	0.00000000000000	-0.10370700000000	0.00000000000000	17.38484300000000	0.00000000000000	0.00000000000000	5.97410900000000	0.00000000000000	
3.79498500000000	-53.77645300000000	670.02030600000001	44.39031500000000	0.11784600000000	0.00000000000000	0.07343200000000	16.12160200000000	259.67725300000001	1.38264100000000	0.43130000000000	0.00000000000000	-0.10383800000000	0.00000000000000	17.15325600000000	0.00000000000000	0.00000000000000	5.74153500000000	0.00000000000000	
3.79665200000000	-53.86040400000000	663.54480500000000	43.50630100000000	0.11773300000000	0.00000000000000	0.07325600000000	17.63856500000000	267.35575799999998	0.65730500000000	0.43214600000000	0.00000000000000	-0.10397200000000	0.00000000000000	16.92113100000000	0.00000000000000	0.00000000000000	5.48441300000000	0.00000000000000	
